# xmcd
#
# Track frame offsets: 
#        150
#        25693
#        44335
#        67955
#        93640
#        118180
#        141010
#        165395
#        188100
#        211368
#        234443
#        259815
#
# Disc length: 3701 seconds
#
# Revision: 0
# Processed by: cddbd v1.5.2PL0 Copyright (c) Steve Scherf et al.
# Submitted via: ExactAudioCopy v1.0b3
#
DISCID=a20e730c
DTITLE=Huong Lan, Bang Chau - Bao Gio Em Quen
DYEAR=1989
DGENRE=
TTITLE0=Huong Lan - Xin anh giu tron tinh que
TTITLE1=Bang Chau - Bao gio em quen
TTITLE2=Huong Lan - Ngay xua len nam len ba
TTITLE3=Bang Chau - Thu ve em gai thanh do
TTITLE4=Huong Lan - Mua bay trong doi
TTITLE5=Bang Chau - Sau co do
TTITLE6=Huong Lan - Nen huong yeu
TTITLE7=Bang Chau - Dem bo vo
TTITLE8=Huong Lan - Tinh ca que huong
TTITLE9=Bang Chau - Thuong ve mien Trung
TTITLE10=Huong Lan - Tam su nguoi hat bai que huong
TTITLE11=Bang Chau - Loi ve dat Me
EXTD=
EXTT0=
EXTT1=
EXTT2=
EXTT3=
EXTT4=
EXTT5=
EXTT6=
EXTT7=
EXTT8=
EXTT9=
EXTT10=
EXTT11=
PLAYORDER=
